<?xml version="1.0" encoding="UTF-8"?>
<svg xmlns="http://www.w3.org/2000/svg" version="1.1" viewBox="0 0 938 508">
  <g transform="translate(0.000000,508.000000) scale(0.100000,-0.100000)" fill="#1d1d1f">
    <path d="M9065 4941 c-33 -10 -98 -29 -145 -41 -127 -34 -561 -157 -670 -190 -1069 -324 -1936 -644 -2847 -1049 -175 -77 -221 -98 -468 -214 -338 -157 -1050 -526 -1345 -697 -1195 -689 -2142 -1367 -2995 -2145 -164 -150 -475 -455 -475 -467 0 -4 390 -8 867 -8 l867 0 165 163 c397 391 773 722 1233 1089 788 629 1692 1230 2581 1717 31 17 83 45 115 63 192 107 810 419 1067 540 379 178 807 362 1230 531 337 134 466 182 905 339 47 17 90 35 97 42 13 12 7 50 -36 231 -26 109 -26 110 -56 112 -16 1 -57 -7 -90 -16z"/>
    <path d="M651 3753 c0 -12 1652 -1208 1666 -1207 6 1 89 51 185 112 95 61 254 160 353 220 99 60 180 114 180 119 0 6 -233 180 -517 387 l-517 376 -675 0 c-372 0 -676 -3 -675 -7z"/>
    <path d="M5750 2483 c-139 -81 -506 -301 -568 -340 -29 -19 -51 -40 -49 -46 2 -7 350 -264 773 -572 424 -308 1028 -748 1343 -977 l573 -418 674 0 c371 0 674 4 674 8 0 5 -377 282 -837 617 -461 335 -883 641 -938 682 -821 599 -1522 1103 -1534 1102 -9 0 -59 -26 -111 -56z"/>
    <path d="M4480 1682 c-102 -71 -213 -148 -246 -173 -34 -24 -103 -73 -152 -109 -50 -36 -90 -69 -88 -75 1 -5 137 -108 302 -228 164 -120 299 -223 299 -230 0 -9 -145 -13 -616 -17 l-615 -5 -119 -100 c-226 -191 -340 -291 -340 -301 0 -5 450 -10 1154 -12 l1154 -2 206 -150 206 -150 672 0 c398 0 673 4 673 9 0 5 -444 332 -987 728 -543 395 -1057 769 -1142 831 -85 61 -159 112 -165 112 -6 0 -94 -58 -196 -128z"/>
  </g>
</svg>
